<svg xmlns="http://www.w3.org/2000/svg" width="428.065" height="428.998" viewBox="0 0 428.065 428.998">
  <g id="Group_4" data-name="Group 4" transform="translate(-745.967 -240.002)">
    <path id="Subtraction_8" data-name="Subtraction 8" d="M214.338,429a216.629,216.629,0,0,1-43.192-4.354A212.935,212.935,0,0,1,94.5,392.355,214.925,214.925,0,0,1,16.848,298,212.937,212.937,0,0,1,4.359,257.719a216.473,216.473,0,0,1,0-86.449A213.232,213.232,0,0,1,36.6,94.557,214.048,214.048,0,0,1,171.146,4.324,215.745,215.745,0,0,1,214.338,0,214.14,214.14,0,0,1,428.065,198.18L271.39,199.918,218.467,148.1l-56.242,53.031h-.392v77.691l256.94.316A214.114,214.114,0,0,1,214.338,429Z" transform="translate(745.967 240.002)" fill="#fff" opacity="0.054"/>
    <path id="Subtraction_9" data-name="Subtraction 9" d="M168.3,336.855a170.016,170.016,0,0,1-33.915-3.42A167.143,167.143,0,0,1,74.2,308.084a168.8,168.8,0,0,1-60.975-74.09,167.294,167.294,0,0,1-9.806-31.631,169.985,169.985,0,0,1,0-67.881A167.4,167.4,0,0,1,28.741,74.248,168.07,168.07,0,0,1,134.386,3.4,168.227,168.227,0,0,1,336.122,155.613L213.1,156.979l-41.556-40.686-44.161,41.641h-.308v61l201.753.25A168.125,168.125,0,0,1,168.3,336.855Z" transform="translate(791.939 286.074)" fill="#fff" opacity="0.054"/>
  </g>
</svg>
