<svg xmlns="http://www.w3.org/2000/svg" width="38.709" height="32.33" viewBox="0 0 38.709 32.33">
  <g id="Icon_feather-users" data-name="Icon feather-users" transform="translate(1.501 1.614)">
    <path id="Path_49045" data-name="Path 49045" d="M27.47,32.239V28.993A6.492,6.492,0,0,0,20.977,22.5H7.992A6.492,6.492,0,0,0,1.5,28.993v3.246" transform="translate(-1.501 -3.023)" fill="none" stroke="#000" stroke-linecap="round" stroke-linejoin="round" stroke-width="3"/>
    <path id="Path_49046" data-name="Path 49046" d="M20.485,10.992A6.492,6.492,0,1,1,13.992,4.5a6.492,6.492,0,0,1,6.492,6.492Z" transform="translate(-1.008 -4.5)" fill="none" stroke="#000" stroke-linecap="round" stroke-linejoin="round" stroke-width="3"/>
    <path id="Path_49047" data-name="Path 49047" d="M34.869,32.223V28.976A6.492,6.492,0,0,0,30,22.7" transform="translate(0.839 -3.007)" fill="none" stroke="#000" stroke-linecap="round" stroke-linejoin="round" stroke-width="3"/>
    <path id="Path_49048" data-name="Path 49048" d="M24,4.7a6.492,6.492,0,0,1,0,12.579" transform="translate(0.346 -4.484)" fill="none" stroke="#000" stroke-linecap="round" stroke-linejoin="round" stroke-width="3"/>
  </g>
</svg>
