<svg xmlns="http://www.w3.org/2000/svg" width="38.941" height="38.955" viewBox="0 0 38.941 38.955">
  <path id="Icon_awesome-teamspeak" data-name="Icon awesome-teamspeak" d="M18.58,26.385c.183-.936-.913-2.283-2.465-3.705a25.722,25.722,0,0,0-4.824-3.546,2.248,2.248,0,0,0-3.523,1.727,7.53,7.53,0,0,0,1.1,5.623,4.081,4.081,0,0,0,3.3,1.826,25.194,25.194,0,0,0,4.694-.076A2.4,2.4,0,0,0,18.58,26.385Zm15.6,1.583a.4.4,0,0,0-.631.183c-.609,1.933-3.4,8.559-13.094,9.244-11.39.8,6.11,3.317,11.063-.487,1.727-1.324,3.622-2.663,3.546-6.5a4.027,4.027,0,0,0-.883-2.442Zm4.717-9.313a3.421,3.421,0,0,0-1.978-3.211.664.664,0,0,1-.449-.487,16.939,16.939,0,0,0-3.074-7.121c-.084-.114-.266-.243-.167-.38.647-.875-.023-1.37-.533-1.856Q24.453-2.367,13.5,1A16.891,16.891,0,0,0,5.737,6.124c-.3.327-.51.692-.228,1.1.228.3.1.472-.076.708a17.228,17.228,0,0,0-2.99,6.978.742.742,0,0,1-.487.593A3.3,3.3,0,0,0,.061,18.093L0,20.108V21.7a3.529,3.529,0,0,0,3.941,3.728.837.837,0,0,0,.913-.875c.152-5.9-.183-7.258.282-9.571A14.651,14.651,0,0,1,26.272,4.975a14.278,14.278,0,0,1,7.783,12.889c.061,2.146,0,4.3,0,6.437,0,.533.167.951.715,1.08a3.466,3.466,0,0,0,4.048-2.792,23.414,23.414,0,0,0,.076-3.934ZM26.751,28.66a4.239,4.239,0,0,0,4.443-4.6c-.16-3.439-5.037-1.255-6.68-.609-5.569,2.138-3.424,4.177-1.689,4.626Z" transform="translate(0 0.002)"/>
</svg>
