<svg xmlns="http://www.w3.org/2000/svg" width="21.905" height="14.609" viewBox="0 0 21.905 14.609">
  <path id="Icon_ionic-ios-arrow-round-forward" data-name="Icon ionic-ios-arrow-round-forward" d="M21.844,11.531a.994.994,0,0,0-.008,1.4l4.626,4.634H8.856a.989.989,0,0,0,0,1.978h17.6l-4.626,4.634a1,1,0,0,0,.008,1.4.985.985,0,0,0,1.392-.008L29.5,19.254h0a1.111,1.111,0,0,0,.205-.312.944.944,0,0,0,.076-.38.992.992,0,0,0-.282-.692l-6.269-6.315A.969.969,0,0,0,21.844,11.531Z" transform="translate(-7.875 -11.252)" fill="#2b2b2b"/>
</svg>
