<svg xmlns="http://www.w3.org/2000/svg" width="64.69" height="64.831" viewBox="0 0 64.69 64.831">
  <path id="Subtraction_5" data-name="Subtraction 5" d="M-6843.607,11777.833a32.7,32.7,0,0,1-6.527-.658,32.194,32.194,0,0,1-6.081-1.89,32.35,32.35,0,0,1-5.5-2.99,32.645,32.645,0,0,1-4.793-3.956,32.843,32.843,0,0,1-3.957-4.8,32.475,32.475,0,0,1-2.985-5.5,32.171,32.171,0,0,1-1.887-6.088,32.612,32.612,0,0,1-.659-6.531,32.6,32.6,0,0,1,.659-6.533,32.149,32.149,0,0,1,1.887-6.088,32.475,32.475,0,0,1,2.985-5.5,32.843,32.843,0,0,1,3.957-4.8,33.008,33.008,0,0,1,4.793-3.958,32.976,32.976,0,0,1,5.5-2.99,32.7,32.7,0,0,1,6.081-1.89,32.626,32.626,0,0,1,6.527-.653,32.271,32.271,0,0,1,22.075,8.69,32.5,32.5,0,0,1,3.95,4.42,32.328,32.328,0,0,1,3.1,5.093,32.472,32.472,0,0,1,2.13,5.648,32.469,32.469,0,0,1,1.049,6.1l-23.677.263-8-7.831-8.5,8.015h-.059v11.74l38.829.048a32.288,32.288,0,0,1-4.537,9.076,32.464,32.464,0,0,1-7.03,7.171,32.237,32.237,0,0,1-8.97,4.707A32.293,32.293,0,0,1-6843.607,11777.833Z" transform="translate(6875.999 -11713.002)" fill="#2b23fa"/>
</svg>
